<svg width="30" height="30" viewBox="0 0 30 30" fill="none" xmlns="http://www.w3.org/2000/svg">
<path d="M21.9571 11.9571C22.3476 11.5666 22.3476 10.9334 21.9571 10.5429C21.5666 10.1524 20.9334 10.1524 20.5429 10.5429L21.9571 11.9571ZM12.5 20L11.7929 20.7071C12.1834 21.0977 12.8166 21.0977 13.2071 20.7071L12.5 20ZM9.45703 15.5429C9.0665 15.1524 8.43334 15.1524 8.04281 15.5429C7.65229 15.9334 7.65229 16.5666 8.04282 16.9571L9.45703 15.5429ZM20.5429 10.5429L11.7929 19.2929L13.2071 20.7071L21.9571 11.9571L20.5429 10.5429ZM8.04282 16.9571L11.7929 20.7071L13.2071 19.2929L9.45703 15.5429L8.04282 16.9571ZM25.25 15C25.25 20.6609 20.6609 25.25 15 25.25V27.25C21.7655 27.25 27.25 21.7655 27.25 15H25.25ZM15 25.25C9.33908 25.25 4.75 20.6609 4.75 15H2.75C2.75 21.7655 8.23451 27.25 15 27.25V25.25ZM4.75 15C4.75 9.33908 9.33908 4.75 15 4.75V2.75C8.23451 2.75 2.75 8.23451 2.75 15H4.75ZM15 4.75C20.6609 4.75 25.25 9.33908 25.25 15H27.25C27.25 8.23451 21.7655 2.75 15 2.75V4.75Z" fill="#16A34A"/>
</svg>
