<svg width="30" height="30" viewBox="0 0 30 30" fill="none" xmlns="http://www.w3.org/2000/svg">
<path d="M20.7071 10.7071C21.0976 10.3166 21.0976 9.68342 20.7071 9.29289C20.3166 8.90237 19.6834 8.90237 19.2929 9.29289L20.7071 10.7071ZM9.29289 19.2929C8.90237 19.6834 8.90237 20.3166 9.29289 20.7071C9.68342 21.0976 10.3166 21.0976 10.7071 20.7071L9.29289 19.2929ZM10.7071 9.29289C10.3166 8.90237 9.68343 8.90237 9.2929 9.29289C8.90238 9.68342 8.90238 10.3166 9.2929 10.7071L10.7071 9.29289ZM19.2929 20.7071C19.6834 21.0976 20.3166 21.0976 20.7071 20.7071C21.0976 20.3166 21.0976 19.6834 20.7071 19.2929L19.2929 20.7071ZM19.2929 9.29289L9.29289 19.2929L10.7071 20.7071L20.7071 10.7071L19.2929 9.29289ZM9.2929 10.7071L19.2929 20.7071L20.7071 19.2929L10.7071 9.29289L9.2929 10.7071ZM25.25 15C25.25 20.6609 20.6609 25.25 15 25.25V27.25C21.7655 27.25 27.25 21.7655 27.25 15H25.25ZM15 25.25C9.33908 25.25 4.75 20.6609 4.75 15H2.75C2.75 21.7655 8.23451 27.25 15 27.25V25.25ZM4.75 15C4.75 9.33908 9.33908 4.75 15 4.75V2.75C8.23451 2.75 2.75 8.23451 2.75 15H4.75ZM15 4.75C20.6609 4.75 25.25 9.33908 25.25 15H27.25C27.25 8.23451 21.7655 2.75 15 2.75V4.75Z" fill="#DC2626"/>
</svg>
