<svg width="28" height="28" viewBox="0 0 28 28" fill="none" xmlns="http://www.w3.org/2000/svg">
<path fill-rule="evenodd" clip-rule="evenodd" d="M14 4.31595C13.2883 4.31595 12.6058 4.59866 12.1026 5.10188C11.5994 5.6051 11.3167 6.28762 11.3167 6.99928V8.51595H16.6833V6.99928C16.6833 6.28762 16.4006 5.6051 15.8974 5.10188C15.3942 4.59866 14.7117 4.31595 14 4.31595ZM18.3167 8.51595V6.99928C18.3167 5.85443 17.8619 4.75647 17.0523 3.94694C16.2428 3.13741 15.1449 2.68262 14 2.68262C12.8551 2.68262 11.7572 3.13741 10.9477 3.94694C10.1381 4.75647 9.68333 5.85443 9.68333 6.99928V8.51595H7.38626M9.68333 10.1493H7.38617C7.16749 10.1493 6.95129 10.1965 6.75259 10.2878C6.55389 10.3791 6.37728 10.5123 6.23488 10.6783C6.09247 10.8443 5.98764 11.039 5.92757 11.2493C5.86751 11.4595 5.85361 11.6803 5.88682 11.8964C5.88682 11.8963 5.88683 11.8964 5.88682 11.8964L7.35099 21.407C7.44842 22.0405 7.76941 22.6184 8.25586 23.0357C8.74229 23.4531 9.36205 23.6826 10.003 23.6826C10.003 23.6826 10.003 23.6826 10.003 23.6826H17.997C18.6381 23.6828 19.2583 23.4534 19.745 23.036C20.2316 22.6186 20.5527 22.0408 20.6502 21.4072L22.1143 11.8965C22.1143 11.8965 22.1143 11.8964 22.1143 11.8965C22.1475 11.6804 22.1337 11.4595 22.0736 11.2493C22.0135 11.039 21.9087 10.8443 21.7663 10.6783C21.6239 10.5123 21.4473 10.3791 21.2486 10.2878C21.0499 10.1965 20.8338 10.1493 20.6151 10.1493H18.3167V13.6493H16.6833V10.1493H11.3167V13.6493H9.68333V10.1493ZM18.3167 8.51595H20.6149C20.6149 8.51595 20.6149 8.51595 20.6149 8.51595C21.069 8.51591 21.5179 8.61407 21.9306 8.8037C22.3433 8.99335 22.7101 9.27 23.0058 9.61468C23.3016 9.95936 23.5193 10.3639 23.6441 10.8006C23.7689 11.2373 23.7977 11.6958 23.7287 12.1448L22.2645 21.6554C22.2645 21.6555 22.2645 21.6554 22.2645 21.6554C22.1077 22.6747 21.5912 23.6044 20.8083 24.2758C20.0256 24.9472 19.0283 25.3162 17.997 25.316C17.9969 25.316 17.9971 25.316 17.997 25.316H10.003C8.97189 25.3159 7.97482 24.9468 7.19228 24.2753C6.40977 23.6039 5.89343 22.6746 5.73668 21.6555C5.73667 21.6555 5.73668 21.6556 5.73668 21.6555L4.27251 12.1449C4.20347 11.696 4.23231 11.2373 4.35707 10.8006C4.48184 10.3639 4.69957 9.95936 4.99533 9.61468C5.29109 9.27 5.65789 8.99335 6.07058 8.8037C6.48324 8.61407 6.93212 8.51591 7.38626 8.51595" fill="#181513"/>
</svg>
