<svg width="24" height="24" viewBox="0 0 24 24" fill="none" xmlns="http://www.w3.org/2000/svg">
<path d="M4.5 3L4.99497 2.92929C4.95979 2.68296 4.74883 2.5 4.5 2.5V3ZM2 2.5C1.72386 2.5 1.5 2.72386 1.5 3C1.5 3.27614 1.72386 3.5 2 3.5V2.5ZM6.5 17L6.00503 17.0707C6.04021 17.317 6.25117 17.5 6.5 17.5V17ZM21 5L21.4743 5.15811C21.5252 5.00564 21.4996 4.83803 21.4056 4.70764C21.3116 4.57726 21.1607 4.5 21 4.5V5ZM18 14V14.5C18.2152 14.5 18.4063 14.3623 18.4743 14.1581L18 14ZM6.07142 13.5C5.79528 13.5 5.57142 13.7239 5.57142 14C5.57142 14.2761 5.79528 14.5 6.07142 14.5V13.5ZM4.78571 4.5C4.50956 4.5 4.28571 4.72386 4.28571 5C4.28571 5.27614 4.50956 5.5 4.78571 5.5V4.5ZM4.5 2.5H2V3.5H4.5V2.5ZM6.5 17.5H17V16.5H6.5V17.5ZM6.99497 16.9293L4.99497 2.92929L4.00503 3.07071L6.00503 17.0707L6.99497 16.9293ZM20.5256 4.84189L17.5257 13.8419L18.4743 14.1581L21.4743 5.15811L20.5256 4.84189ZM18 13.5H6.07142V14.5H18V13.5ZM4.78571 5.5H21V4.5H4.78571V5.5ZM10.5 19C10.5 19.8284 9.82843 20.5 9 20.5V21.5C10.3807 21.5 11.5 20.3807 11.5 19H10.5ZM9 20.5C8.17157 20.5 7.5 19.8284 7.5 19H6.5C6.5 20.3807 7.61929 21.5 9 21.5V20.5ZM7.5 19C7.5 18.1716 8.17157 17.5 9 17.5V16.5C7.61929 16.5 6.5 17.6193 6.5 19H7.5ZM9 17.5C9.82843 17.5 10.5 18.1716 10.5 19H11.5C11.5 17.6193 10.3807 16.5 9 16.5V17.5ZM18.5 19C18.5 19.8284 17.8284 20.5 17 20.5V21.5C18.3807 21.5 19.5 20.3807 19.5 19H18.5ZM17 20.5C16.1716 20.5 15.5 19.8284 15.5 19H14.5C14.5 20.3807 15.6193 21.5 17 21.5V20.5ZM15.5 19C15.5 18.1716 16.1716 17.5 17 17.5V16.5C15.6193 16.5 14.5 17.6193 14.5 19H15.5ZM17 17.5C17.8284 17.5 18.5 18.1716 18.5 19H19.5C19.5 17.6193 18.3807 16.5 17 16.5V17.5Z" fill="#262626"/>
</svg>
