<svg width="30" height="30" viewBox="0 0 30 30" fill="none" xmlns="http://www.w3.org/2000/svg">
<path d="M24.2803 6.78033C24.5732 6.48744 24.5732 6.01256 24.2803 5.71967C23.9875 5.42678 23.5126 5.42678 23.2197 5.71967L24.2803 6.78033ZM5.71967 23.2197C5.42678 23.5126 5.42678 23.9875 5.71967 24.2803C6.01256 24.5732 6.48744 24.5732 6.78033 24.2803L5.71967 23.2197ZM6.78037 5.71967C6.48747 5.42678 6.0126 5.42678 5.71971 5.71967C5.42681 6.01256 5.42681 6.48744 5.71971 6.78033L6.78037 5.71967ZM23.2197 24.2803C23.5126 24.5732 23.9875 24.5732 24.2804 24.2803C24.5733 23.9875 24.5733 23.5126 24.2804 23.2197L23.2197 24.2803ZM23.2197 5.71967L5.71967 23.2197L6.78033 24.2803L24.2803 6.78033L23.2197 5.71967ZM5.71971 6.78033L23.2197 24.2803L24.2804 23.2197L6.78037 5.71967L5.71971 6.78033Z" fill="#262626"/>
</svg>
