<svg width="30" height="30" viewBox="0 0 30 30" fill="none" xmlns="http://www.w3.org/2000/svg">
<path d="M18.3385 11.4557C18.107 10.9926 17.5438 10.8049 17.0807 11.0365C16.6176 11.268 16.4299 11.8312 16.6615 12.2943L18.3385 11.4557ZM16.6615 18.9557C16.4299 19.4188 16.6176 19.982 17.0807 20.2135C17.5438 20.4451 18.107 20.2574 18.3385 19.7943L16.6615 18.9557ZM13.3385 12.2943C13.5701 11.8312 13.3824 11.268 12.9193 11.0365C12.4562 10.8049 11.893 10.9926 11.6615 11.4557L13.3385 12.2943ZM11.6615 19.7943C11.893 20.2574 12.4562 20.4451 12.9193 20.2135C13.3824 19.982 13.5701 19.4188 13.3385 18.9557L11.6615 19.7943ZM8.43749 7.5C8.43749 6.98223 8.01776 6.5625 7.49999 6.5625C6.98222 6.5625 6.56249 6.98223 6.56249 7.5H8.43749ZM23.4375 7.5C23.4375 6.98223 23.0178 6.5625 22.5 6.5625C21.9822 6.5625 21.5625 6.98223 21.5625 7.5H23.4375ZM5 6.5625C4.48223 6.5625 4.0625 6.98223 4.0625 7.5C4.0625 8.01777 4.48223 8.4375 5 8.4375V6.5625ZM25 8.4375C25.5178 8.4375 25.9375 8.01777 25.9375 7.5C25.9375 6.98223 25.5178 6.5625 25 6.5625V8.4375ZM17.8125 7.5C17.8125 8.01777 18.2322 8.4375 18.75 8.4375C19.2678 8.4375 19.6875 8.01777 19.6875 7.5H17.8125ZM10.3125 7.5C10.3125 8.01777 10.7322 8.4375 11.25 8.4375C11.7678 8.4375 12.1875 8.01777 12.1875 7.5H10.3125ZM17.5 11.875C16.6615 12.2943 16.6613 12.2939 16.6612 12.2936C16.6611 12.2935 16.6609 12.2932 16.6608 12.293C16.6606 12.2926 16.6605 12.2922 16.6603 12.2919C16.6599 12.2911 16.6596 12.2905 16.6593 12.2899C16.6587 12.2888 16.6583 12.2879 16.6581 12.2873C16.6575 12.2862 16.6576 12.2863 16.6582 12.2876C16.6593 12.2901 16.6627 12.2973 16.668 12.3094C16.6785 12.3334 16.6966 12.3765 16.7198 12.4386C16.7664 12.5627 16.8338 12.7631 16.903 13.0399C17.0412 13.5928 17.1875 14.454 17.1875 15.625H19.0625C19.0625 14.296 18.8963 13.2822 18.722 12.5851C18.635 12.2369 18.5461 11.9686 18.4755 11.7802C18.4402 11.686 18.4094 11.6119 18.3858 11.5578C18.3739 11.5308 18.3639 11.5088 18.3559 11.4917C18.3519 11.4832 18.3484 11.476 18.3455 11.47C18.3441 11.467 18.3428 11.4643 18.3416 11.4619C18.341 11.4607 18.3405 11.4596 18.3399 11.4586C18.3397 11.4581 18.3394 11.4576 18.3392 11.4571C18.3391 11.4569 18.3389 11.4565 18.3389 11.4564C18.3387 11.4561 18.3385 11.4557 17.5 11.875ZM17.1875 15.625C17.1875 16.796 17.0412 17.6572 16.903 18.2101C16.8338 18.4869 16.7664 18.6873 16.7198 18.8114C16.6966 18.8735 16.6785 18.9166 16.668 18.9406C16.6627 18.9527 16.6593 18.9599 16.6582 18.9624C16.6576 18.9637 16.6575 18.9638 16.6581 18.9627C16.6583 18.9621 16.6587 18.9612 16.6593 18.9601C16.6596 18.9595 16.6599 18.9589 16.6603 18.9581C16.6605 18.9578 16.6606 18.9574 16.6608 18.957C16.6609 18.9568 16.6611 18.9565 16.6612 18.9564C16.6613 18.9561 16.6615 18.9557 17.5 19.375C18.3385 19.7943 18.3387 19.7939 18.3389 19.7936C18.3389 19.7935 18.3391 19.7931 18.3392 19.7929C18.3394 19.7924 18.3397 19.7919 18.3399 19.7914C18.3405 19.7904 18.341 19.7893 18.3416 19.7881C18.3428 19.7857 18.3441 19.783 18.3455 19.78C18.3484 19.774 18.3519 19.7668 18.3559 19.7583C18.3639 19.7412 18.3739 19.7192 18.3858 19.6922C18.4094 19.6381 18.4402 19.564 18.4755 19.4698C18.5461 19.2814 18.635 19.0131 18.722 18.6649C18.8963 17.9678 19.0625 16.954 19.0625 15.625H17.1875ZM12.5 11.875C11.6615 11.4557 11.6613 11.4561 11.6611 11.4564C11.6611 11.4565 11.6609 11.4569 11.6608 11.4571C11.6606 11.4576 11.6603 11.4581 11.6601 11.4586C11.6595 11.4596 11.659 11.4607 11.6584 11.4619C11.6572 11.4643 11.6559 11.467 11.6545 11.47C11.6516 11.476 11.6481 11.4832 11.6441 11.4917C11.6361 11.5088 11.6261 11.5308 11.6142 11.5578C11.5906 11.6119 11.5598 11.686 11.5245 11.7802C11.4539 11.9686 11.365 12.2369 11.278 12.5851C11.1037 13.2822 10.9375 14.296 10.9375 15.625H12.8125C12.8125 14.454 12.9588 13.5928 13.097 13.0399C13.1662 12.7631 13.2336 12.5627 13.2802 12.4386C13.3034 12.3765 13.3215 12.3334 13.332 12.3094C13.3373 12.2973 13.3407 12.2901 13.3418 12.2876C13.3424 12.2863 13.3425 12.2862 13.3419 12.2873C13.3417 12.2879 13.3413 12.2888 13.3407 12.2899C13.3404 12.2905 13.3401 12.2911 13.3397 12.2919C13.3395 12.2922 13.3394 12.2926 13.3392 12.293C13.3391 12.2932 13.3389 12.2935 13.3388 12.2936C13.3387 12.2939 13.3385 12.2943 12.5 11.875ZM10.9375 15.625C10.9375 16.954 11.1037 17.9678 11.278 18.6649C11.365 19.0131 11.4539 19.2814 11.5245 19.4698C11.5598 19.564 11.5906 19.6381 11.6142 19.6922C11.6261 19.7192 11.6361 19.7412 11.6441 19.7583C11.6481 19.7668 11.6516 19.774 11.6545 19.78C11.6559 19.783 11.6572 19.7857 11.6584 19.7881C11.659 19.7893 11.6595 19.7904 11.6601 19.7914C11.6603 19.7919 11.6606 19.7924 11.6608 19.7929C11.6609 19.7931 11.6611 19.7935 11.6611 19.7936C11.6613 19.7939 11.6615 19.7943 12.5 19.375C13.3385 18.9557 13.3387 18.9561 13.3388 18.9564C13.3389 18.9565 13.3391 18.9568 13.3392 18.957C13.3394 18.9574 13.3395 18.9578 13.3397 18.9581C13.3401 18.9589 13.3404 18.9595 13.3407 18.9601C13.3413 18.9612 13.3417 18.9621 13.3419 18.9627C13.3425 18.9638 13.3424 18.9637 13.3418 18.9624C13.3407 18.9599 13.3373 18.9527 13.332 18.9406C13.3215 18.9166 13.3034 18.8735 13.2802 18.8114C13.2336 18.6873 13.1662 18.4869 13.097 18.2101C12.9588 17.6572 12.8125 16.796 12.8125 15.625H10.9375ZM15 24.0625C12.8788 24.0625 11.5081 23.4822 10.5848 22.6129C9.64265 21.7259 9.05412 20.4331 8.71345 18.8043C8.37282 17.1758 8.29766 15.2987 8.31401 13.3317C8.32216 12.3517 8.35266 11.3644 8.38155 10.3821C8.41031 9.40439 8.43749 8.43119 8.43749 7.5H6.56249C6.56249 8.39966 6.5362 9.34648 6.50736 10.327C6.47865 11.303 6.44743 12.3122 6.43908 13.3161C6.42244 15.317 6.49519 17.3572 6.87816 19.1882C7.2611 21.019 7.97187 22.7281 9.29952 23.9781C10.646 25.2457 12.5156 25.9375 15 25.9375V24.0625ZM21.5625 7.5C21.5625 8.43119 21.5897 9.40439 21.6184 10.3821C21.6473 11.3644 21.6778 12.3517 21.686 13.3317C21.7023 15.2987 21.6272 17.1758 21.2865 18.8043C20.9459 20.4331 20.3573 21.7259 19.4152 22.6129C18.4918 23.4822 17.1212 24.0625 15 24.0625V25.9375C17.4844 25.9375 19.354 25.2457 20.7005 23.9781C22.0281 22.7281 22.7389 21.019 23.1218 19.1882C23.5048 17.3572 23.5775 15.317 23.5609 13.3161C23.5526 12.3122 23.5213 11.303 23.4926 10.327C23.4638 9.34648 23.4375 8.39966 23.4375 7.5H21.5625ZM5 8.4375H25V6.5625H5V8.4375ZM19.6875 7.5V6.25H17.8125V7.5H19.6875ZM10.3125 6.25V7.5H12.1875V6.25H10.3125ZM19.6875 6.25C19.6875 5.54669 19.5235 4.92939 19.1912 4.41479C18.8602 3.90209 18.4032 3.55489 17.9193 3.32271C16.9897 2.8767 15.8661 2.8125 15 2.8125V4.6875C15.8372 4.6875 16.5886 4.7639 17.1082 5.0132C17.3489 5.12866 17.5101 5.26778 17.616 5.43185C17.7207 5.59401 17.8125 5.84391 17.8125 6.25H19.6875ZM15 2.8125C14.1339 2.8125 13.0103 2.8767 12.0807 3.32271C11.5968 3.55489 11.1398 3.90209 10.8088 4.41479C10.4765 4.92939 10.3125 5.54669 10.3125 6.25H12.1875C12.1875 5.84391 12.2793 5.59401 12.384 5.43185C12.4899 5.26778 12.6511 5.12866 12.8918 5.0132C13.4114 4.7639 14.1628 4.6875 15 4.6875V2.8125Z" fill="#EF4444"/>
</svg>
