<svg width="24" height="24" viewBox="0 0 24 24" fill="none" xmlns="http://www.w3.org/2000/svg">
<path d="M15.5304 10.5299C15.8233 10.237 15.8233 9.76211 15.5304 9.46921C15.2375 9.17632 14.7627 9.17632 14.4698 9.46921L15.5304 10.5299ZM11.0001 13.9996L10.4698 14.5299C10.7626 14.8228 11.2375 14.8228 11.5304 14.5299L11.0001 13.9996ZM9.53029 11.4692C9.23739 11.1763 8.76252 11.1763 8.46963 11.4692C8.17674 11.7621 8.17675 12.237 8.46965 12.5299L9.53029 11.4692ZM13.0693 20.5991L13.3866 21.2786L13.0693 20.5991ZM10.9306 20.5991L11.2479 19.9195L10.9306 20.5991ZM17.7888 5.89397L18.1242 5.22315L17.7888 5.89397ZM19.8119 9.46184L20.5539 9.57083L19.8119 9.46184ZM6.2111 5.89397L6.54651 6.56479L6.2111 5.89397ZM4.188 9.46184L3.44596 9.57083L4.188 9.46184ZM10.2111 3.89397L9.87569 3.22315L10.2111 3.89397ZM13.7888 3.89397L13.4534 4.56479L13.7888 3.89397ZM14.4698 9.46921L10.4697 13.4692L11.5304 14.5299L15.5304 10.5299L14.4698 9.46921ZM8.46965 12.5299L10.4698 14.5299L11.5304 13.4692L9.53029 11.4692L8.46965 12.5299ZM9.87569 3.22315L5.87569 5.22315L6.54651 6.56479L10.5465 4.56479L9.87569 3.22315ZM18.1242 5.22315L14.1242 3.22315L13.4534 4.56479L17.4534 6.56479L18.1242 5.22315ZM13.3866 21.2786C15.4714 20.3052 17.0963 18.4813 18.2744 16.3844C19.4553 14.2824 20.219 11.8514 20.5539 9.57083L19.0699 9.35285C18.7583 11.4743 18.0472 13.7264 16.9666 15.6497C15.8832 17.5782 14.4602 19.1219 12.752 19.9195L13.3866 21.2786ZM3.44596 9.57083C3.78093 11.8514 4.54464 14.2824 5.72553 16.3844C6.90357 18.4813 8.52854 20.3052 10.6133 21.2786L11.2479 19.9195C9.53974 19.1219 8.11668 17.5782 7.03329 15.6497C5.95275 13.7264 5.24163 11.4743 4.93004 9.35285L3.44596 9.57083ZM12.752 19.9195C12.2763 20.1416 11.7236 20.1416 11.2479 19.9195L10.6133 21.2786C11.4912 21.6886 12.5087 21.6886 13.3866 21.2786L12.752 19.9195ZM17.4534 6.56479C18.5761 7.12615 19.2343 8.23345 19.0699 9.35285L20.5539 9.57083C20.8299 7.69222 19.7118 6.01693 18.1242 5.22315L17.4534 6.56479ZM5.87569 5.22315C4.28814 6.01693 3.17004 7.69222 3.44596 9.57083L4.93004 9.35285C4.76563 8.23346 5.42379 7.12615 6.54651 6.56479L5.87569 5.22315ZM10.5465 4.56479C11.4615 4.10731 12.5384 4.10731 13.4534 4.56479L14.1242 3.22315C12.787 2.55452 11.2129 2.55452 9.87569 3.22315L10.5465 4.56479Z" fill="#22C55E"/>
</svg>
