<svg width="20" height="20" viewBox="0 0 20 20" fill="none" xmlns="http://www.w3.org/2000/svg">
<path d="M3.3335 9.24967C2.91928 9.24967 2.5835 9.58546 2.5835 9.99967C2.5835 10.4139 2.91928 10.7497 3.3335 10.7497V9.24967ZM16.6668 10.7497C17.081 10.7497 17.4168 10.4139 17.4168 9.99967C17.4168 9.58546 17.081 9.24967 16.6668 9.24967V10.7497ZM10.7502 3.33301C10.7502 2.91879 10.4144 2.58301 10.0002 2.58301C9.58595 2.58301 9.25016 2.91879 9.25016 3.33301H10.7502ZM9.25016 16.6663C9.25016 17.0806 9.58595 17.4163 10.0002 17.4163C10.4144 17.4163 10.7502 17.0806 10.7502 16.6663H9.25016ZM3.3335 10.7497H16.6668V9.24967H3.3335V10.7497ZM9.25016 3.33301V16.6663H10.7502V3.33301H9.25016Z" fill="#262626"/>
</svg>
