<svg width="24" height="24" viewBox="0 0 24 24" fill="none" xmlns="http://www.w3.org/2000/svg">
<path d="M3.76725 9.43934L3.19149 8.95872L3.76725 9.43934ZM20.2325 9.43934L19.6568 9.91997L20.2325 9.43934ZM20.2325 14.5607L19.6568 14.08L20.2325 14.5607ZM3.76725 14.5607L3.19149 15.0413L3.76725 14.5607ZM4.34301 9.91997C5.96447 7.97755 8.57981 5.75 11.9999 5.75V4.25C7.90517 4.25 4.90733 6.90325 3.19149 8.95872L4.34301 9.91997ZM11.9999 5.75C15.42 5.75 18.0353 7.97755 19.6568 9.91997L20.8083 8.95872C19.0924 6.90325 16.0946 4.25 11.9999 4.25V5.75ZM19.6568 14.08C18.0353 16.0224 15.42 18.25 11.9999 18.25V19.75C16.0946 19.75 19.0924 17.0968 20.8083 15.0413L19.6568 14.08ZM11.9999 18.25C8.57981 18.25 5.96447 16.0224 4.34301 14.08L3.19149 15.0413C4.90733 17.0968 7.90517 19.75 11.9999 19.75V18.25ZM19.6568 9.91997C20.6766 11.1417 20.6766 12.8583 19.6568 14.08L20.8083 15.0413C22.2928 13.263 22.2928 10.737 20.8083 8.95872L19.6568 9.91997ZM3.19149 8.95872C1.707 10.737 1.707 13.263 3.19149 15.0413L4.34301 14.08C3.32316 12.8583 3.32316 11.1417 4.34301 9.91997L3.19149 8.95872ZM14.2499 12C14.2499 13.2426 13.2425 14.25 11.9999 14.25V15.75C14.0709 15.75 15.7499 14.0711 15.7499 12H14.2499ZM11.9999 14.25C10.7572 14.25 9.74988 13.2426 9.74988 12H8.24988C8.24988 14.0711 9.92881 15.75 11.9999 15.75V14.25ZM9.74988 12C9.74988 10.7574 10.7572 9.75 11.9999 9.75V8.25C9.92881 8.25 8.24988 9.92893 8.24988 12H9.74988ZM11.9999 9.75C13.2425 9.75 14.2499 10.7574 14.2499 12H15.7499C15.7499 9.92893 14.0709 8.25 11.9999 8.25V9.75Z" fill="#737373"/>
</svg>
