<svg width="21" height="20" viewBox="0 0 21 20" fill="none" xmlns="http://www.w3.org/2000/svg">
<path d="M3.8335 9.24967C3.41928 9.24967 3.0835 9.58546 3.0835 9.99967C3.0835 10.4139 3.41928 10.7497 3.8335 10.7497V9.24967ZM17.1668 10.7497C17.581 10.7497 17.9168 10.4139 17.9168 9.99967C17.9168 9.58546 17.581 9.24967 17.1668 9.24967V10.7497ZM11.2502 3.33301C11.2502 2.91879 10.9144 2.58301 10.5002 2.58301C10.0859 2.58301 9.75016 2.91879 9.75016 3.33301H11.2502ZM9.75016 16.6663C9.75016 17.0806 10.0859 17.4163 10.5002 17.4163C10.9144 17.4163 11.2502 17.0806 11.2502 16.6663H9.75016ZM3.8335 10.7497H17.1668V9.24967H3.8335V10.7497ZM9.75016 3.33301V16.6663H11.2502V3.33301H9.75016Z" fill="#262626"/>
</svg>
