<svg width="25" height="24" viewBox="0 0 25 24" fill="none" xmlns="http://www.w3.org/2000/svg">
<path d="M4.5 11.25C4.08579 11.25 3.75 11.5858 3.75 12C3.75 12.4142 4.08579 12.75 4.5 12.75V11.25ZM20.5 12.75C20.9142 12.75 21.25 12.4142 21.25 12C21.25 11.5858 20.9142 11.25 20.5 11.25V12.75ZM13.25 4C13.25 3.58579 12.9142 3.25 12.5 3.25C12.0858 3.25 11.75 3.58579 11.75 4H13.25ZM11.75 20C11.75 20.4142 12.0858 20.75 12.5 20.75C12.9142 20.75 13.25 20.4142 13.25 20H11.75ZM4.5 12.75H20.5V11.25H4.5V12.75ZM11.75 4V20H13.25V4H11.75Z" fill="#262626"/>
</svg>
