<svg width="10" height="18" viewBox="0 0 10 18" fill="none" xmlns="http://www.w3.org/2000/svg">
<path d="M0.46967 1.53033C0.176777 1.23744 0.176777 0.762563 0.46967 0.46967C0.762563 0.176777 1.23744 0.176777 1.53033 0.46967L0.46967 1.53033ZM9 9L9.53033 8.46967C9.82322 8.76256 9.82322 9.23744 9.53033 9.53033L9 9ZM1.53033 17.5303C1.23744 17.8232 0.762563 17.8232 0.46967 17.5303C0.176777 17.2374 0.176777 16.7626 0.46967 16.4697L1.53033 17.5303ZM1.53033 0.46967L9.53033 8.46967L8.46967 9.53033L0.46967 1.53033L1.53033 0.46967ZM9.53033 9.53033L1.53033 17.5303L0.46967 16.4697L8.46967 8.46967L9.53033 9.53033Z" fill="white"/>
</svg>
