<svg width="18" height="18" viewBox="0 0 18 18" fill="none" xmlns="http://www.w3.org/2000/svg">
<path fill-rule="evenodd" clip-rule="evenodd" d="M5.28998 2.1642C5.99063 1.87398 6.74159 1.72461 7.49998 1.72461C8.25836 1.72461 9.00932 1.87398 9.70997 2.1642C10.4106 2.45443 11.0473 2.87981 11.5835 3.41607C12.1198 3.95233 12.5452 4.58896 12.8354 5.28961C13.1256 5.99027 13.275 6.74123 13.275 7.49961C13.275 8.25799 13.1256 9.00895 12.8354 9.70961C12.6123 10.2481 12.3095 10.7487 11.9378 11.195L16.4924 15.7496L15.75 16.4921L11.1954 11.9375C10.7491 12.3091 10.2484 12.612 9.70997 12.835C9.00932 13.1252 8.25836 13.2746 7.49998 13.2746C6.74159 13.2746 5.99063 13.1252 5.28998 12.835C4.58932 12.5448 3.95269 12.1194 3.41643 11.5831C2.88018 11.0469 2.45479 10.4103 2.16457 9.70961C1.87435 9.00895 1.72498 8.25799 1.72498 7.49961C1.72498 6.74123 1.87435 5.99027 2.16457 5.28961C2.45479 4.58896 2.88018 3.95233 3.41643 3.41607C3.95269 2.87981 4.58932 2.45443 5.28998 2.1642ZM7.49998 2.77461C6.87948 2.77461 6.26506 2.89683 5.6918 3.13428C5.11853 3.37173 4.59765 3.71977 4.1589 4.15853C3.72014 4.59729 3.3721 5.11817 3.13464 5.69143C2.89719 6.26469 2.77498 6.87911 2.77498 7.49961C2.77498 8.1201 2.89719 8.73453 3.13464 9.30779C3.3721 9.88105 3.72014 10.4019 4.1589 10.8407C4.59765 11.2794 5.11853 11.6275 5.6918 11.8649C6.26506 12.1024 6.87948 12.2246 7.49998 12.2246C8.12047 12.2246 8.73489 12.1024 9.30816 11.8649C9.88142 11.6275 10.4023 11.2794 10.8411 10.8407C11.2798 10.4019 11.6279 9.88105 11.8653 9.30779C12.1028 8.73453 12.225 8.1201 12.225 7.49961C12.225 6.87911 12.1028 6.26469 11.8653 5.69143C11.6279 5.11817 11.2798 4.59729 10.8411 4.15853C10.4023 3.71977 9.88142 3.37173 9.30816 3.13428C8.73489 2.89683 8.12047 2.77461 7.49998 2.77461Z" fill="#40444C"/>
</svg>
